<?xml version="1.0" encoding="UTF-8" standalone="no"?>
<!DOCTYPE svg PUBLIC "-//W3C//DTD SVG 1.1//EN" "http://www.w3.org/Graphics/SVG/1.1/DTD/svg11.dtd">
<svg width="100%" height="100%" viewBox="0 0 1018 149" version="1.1" xmlns="http://www.w3.org/2000/svg" xmlns:xlink="http://www.w3.org/1999/xlink" xml:space="preserve" xmlns:serif="http://www.serif.com/" style="fill-rule:evenodd;clip-rule:evenodd;stroke-linejoin:round;stroke-miterlimit:2;">
    <g transform="matrix(16.7598,0,0,16.7598,-15650.1,-9618.91)">
        <path d="M933.938,574.076L936.542,574.076L937.322,578.336L937.382,578.336L938.282,574.076L940.202,574.076L941.102,578.336L941.162,578.336L941.942,574.076L944.498,574.076L942.218,582.476L940.118,582.476L939.242,578.276L939.194,578.276L938.318,582.476L936.218,582.476L933.938,574.076Z" style="fill:none;fill-rule:nonzero;stroke:black;stroke-opacity:0.22;stroke-width:0.3px;"/>
        <path d="M944.798,574.076L946.958,574.076L946.958,577.256L947.018,577.256C947.074,577.168 947.142,577.078 947.222,576.986C947.302,576.894 947.398,576.81 947.51,576.734C947.622,576.658 947.746,576.596 947.882,576.548C948.018,576.5 948.17,576.476 948.338,576.476C948.85,576.476 949.248,576.664 949.532,577.04C949.816,577.416 949.958,577.968 949.958,578.696L949.958,582.476L947.798,582.476L947.798,578.996C947.798,578.844 947.758,578.726 947.678,578.642C947.598,578.558 947.498,578.516 947.378,578.516C947.258,578.516 947.158,578.56 947.078,578.648C946.998,578.736 946.958,578.872 946.958,579.056L946.958,582.476L944.798,582.476L944.798,574.076Z" style="fill:none;fill-rule:nonzero;stroke:black;stroke-opacity:0.22;stroke-width:0.3px;"/>
        <path d="M952.058,582.596C951.85,582.596 951.654,582.55 951.47,582.458C951.286,582.366 951.126,582.242 950.99,582.086C950.854,581.93 950.748,581.746 950.672,581.534C950.596,581.322 950.558,581.096 950.558,580.856C950.558,580.44 950.712,580.058 951.02,579.71C951.328,579.362 951.814,579.108 952.478,578.948L953.498,578.696L953.498,578.684C953.49,578.476 953.426,578.326 953.306,578.234C953.186,578.142 953.05,578.096 952.898,578.096C952.794,578.096 952.694,578.114 952.598,578.15C952.502,578.186 952.414,578.228 952.334,578.276C952.254,578.324 952.186,578.376 952.13,578.432C952.074,578.488 952.03,578.536 951.998,578.576L950.858,577.556C950.874,577.532 950.936,577.458 951.044,577.334C951.152,577.21 951.302,577.08 951.494,576.944C951.686,576.808 951.924,576.686 952.208,576.578C952.492,576.47 952.822,576.416 953.198,576.416C953.558,576.416 953.882,576.47 954.17,576.578C954.458,576.686 954.704,576.836 954.908,577.028C955.112,577.22 955.268,577.448 955.376,577.712C955.484,577.976 955.538,578.264 955.538,578.576L955.538,582.476L953.498,582.476L953.498,581.816L953.438,581.816C953.414,581.856 953.368,581.92 953.3,582.008C953.232,582.096 953.142,582.184 953.03,582.272C952.918,582.36 952.78,582.436 952.616,582.5C952.452,582.564 952.266,582.596 952.058,582.596ZM952.898,580.916C953.09,580.916 953.238,580.852 953.342,580.724C953.446,580.596 953.498,580.44 953.498,580.256L953.498,579.86L953.066,579.98C952.922,580.02 952.798,580.084 952.694,580.172C952.59,580.26 952.538,580.376 952.538,580.52C952.538,580.632 952.57,580.726 952.634,580.802C952.698,580.878 952.786,580.916 952.898,580.916Z" style="fill:none;fill-rule:nonzero;stroke:black;stroke-opacity:0.22;stroke-width:0.3px;"/>
        <path d="M958.718,582.596C958.086,582.596 957.598,582.392 957.254,581.984C956.91,581.576 956.738,580.98 956.738,580.196L956.738,578.516L956.078,578.516L956.078,576.596L956.498,576.596C956.818,576.596 956.978,576.436 956.978,576.116L956.978,574.976L958.898,574.976L958.898,576.596L959.798,576.596L959.798,578.516L958.898,578.516L958.898,580.016C958.898,580.2 958.942,580.346 959.03,580.454C959.118,580.562 959.254,580.616 959.438,580.616C959.526,580.616 959.598,580.61 959.654,580.598C959.71,580.586 959.758,580.572 959.798,580.556L959.798,582.416C959.71,582.448 959.576,582.486 959.396,582.53C959.216,582.574 958.99,582.596 958.718,582.596Z" style="fill:none;fill-rule:nonzero;stroke:black;stroke-opacity:0.22;stroke-width:0.3px;"/>
        <path d="M962.498,574.076L965.102,574.076L965.882,578.336L965.942,578.336L966.842,574.076L968.762,574.076L969.662,578.336L969.722,578.336L970.502,574.076L973.058,574.076L970.778,582.476L968.678,582.476L967.802,578.276L967.754,578.276L966.878,582.476L964.778,582.476L962.498,574.076Z" style="fill:none;fill-rule:nonzero;stroke:black;stroke-opacity:0.22;stroke-width:0.3px;"/>
        <path d="M975.674,582.656C975.25,582.656 974.86,582.576 974.504,582.416C974.148,582.256 973.84,582.034 973.58,581.75C973.32,581.466 973.118,581.134 972.974,580.754C972.83,580.374 972.758,579.968 972.758,579.536C972.758,579.104 972.828,578.698 972.968,578.318C973.108,577.938 973.302,577.606 973.55,577.322C973.798,577.038 974.09,576.816 974.426,576.656C974.762,576.496 975.126,576.416 975.518,576.416C975.902,576.416 976.26,576.492 976.592,576.644C976.924,576.796 977.21,577.008 977.45,577.28C977.69,577.552 977.878,577.87 978.014,578.234C978.15,578.598 978.218,578.992 978.218,579.416C978.218,579.656 978.2,579.832 978.164,579.944C978.128,580.056 978.106,580.12 978.098,580.136L974.858,580.136C974.89,580.376 975.006,580.576 975.206,580.736C975.406,580.896 975.658,580.976 975.962,580.976C976.098,580.976 976.224,580.96 976.34,580.928C976.456,580.896 976.558,580.86 976.646,580.82C976.734,580.78 976.804,580.74 976.856,580.7C976.908,580.66 976.942,580.632 976.958,580.616L977.774,581.972C977.718,582.02 977.632,582.084 977.516,582.164C977.4,582.244 977.254,582.32 977.078,582.392C976.902,582.464 976.696,582.526 976.46,582.578C976.224,582.63 975.962,582.656 975.674,582.656ZM976.178,579.056C976.178,578.752 976.12,578.506 976.004,578.318C975.888,578.13 975.738,578.036 975.554,578.036C975.33,578.036 975.158,578.13 975.038,578.318C974.918,578.506 974.858,578.752 974.858,579.056L976.178,579.056Z" style="fill:none;fill-rule:nonzero;stroke:black;stroke-opacity:0.22;stroke-width:0.3px;"/>
        <path d="M981.698,574.076L984.398,574.076C984.95,574.076 985.456,574.186 985.916,574.406C986.376,574.626 986.768,574.924 987.092,575.3C987.416,575.676 987.668,576.12 987.848,576.632C988.028,577.144 988.118,577.692 988.118,578.276C988.118,578.86 988.028,579.408 987.848,579.92C987.668,580.432 987.416,580.876 987.092,581.252C986.768,581.628 986.376,581.926 985.916,582.146C985.456,582.366 984.95,582.476 984.398,582.476L981.698,582.476L981.698,574.076ZM984.398,580.436C984.822,580.436 985.148,580.242 985.376,579.854C985.604,579.466 985.718,578.94 985.718,578.276C985.718,577.612 985.604,577.086 985.376,576.698C985.148,576.31 984.822,576.116 984.398,576.116L984.098,576.116L984.098,580.436L984.398,580.436Z" style="fill:none;fill-rule:nonzero;stroke:black;stroke-opacity:0.22;stroke-width:0.3px;"/>
        <path d="M991.538,582.656C991.13,582.656 990.754,582.576 990.41,582.416C990.066,582.256 989.768,582.034 989.516,581.75C989.264,581.466 989.068,581.134 988.928,580.754C988.788,580.374 988.718,579.968 988.718,579.536C988.718,579.104 988.788,578.698 988.928,578.318C989.068,577.938 989.264,577.606 989.516,577.322C989.768,577.038 990.066,576.816 990.41,576.656C990.754,576.496 991.13,576.416 991.538,576.416C991.946,576.416 992.322,576.496 992.666,576.656C993.01,576.816 993.308,577.038 993.56,577.322C993.812,577.606 994.008,577.938 994.148,578.318C994.288,578.698 994.358,579.104 994.358,579.536C994.358,579.968 994.288,580.374 994.148,580.754C994.008,581.134 993.812,581.466 993.56,581.75C993.308,582.034 993.01,582.256 992.666,582.416C992.322,582.576 991.946,582.656 991.538,582.656ZM991.538,580.676C991.722,580.676 991.868,580.576 991.976,580.376C992.084,580.176 992.138,579.896 992.138,579.536C992.138,579.176 992.084,578.896 991.976,578.696C991.868,578.496 991.722,578.396 991.538,578.396C991.354,578.396 991.208,578.496 991.1,578.696C990.992,578.896 990.938,579.176 990.938,579.536C990.938,579.896 990.992,580.176 991.1,580.376C991.208,580.576 991.354,580.676 991.538,580.676Z" style="fill:none;fill-rule:nonzero;stroke:black;stroke-opacity:0.22;stroke-width:0.3px;"/>
    </g>
</svg>
